<svg xmlns="http://www.w3.org/2000/svg" width="143" height="46" fill="none"><path fill="#F0E5E9" d="M138.923 39.767a.387.387 0 0 1-.108.562.415.415 0 0 1-.569-.09s-2.335-3.422-4.042-4.095c-.461-.2-.687 0-1.256.492-.873.803-2.207 2.007-5.729 1.746a.372.372 0 0 1-.275-.128.397.397 0 0 1-.098-.293.449.449 0 0 1 .14-.297.426.426 0 0 1 .302-.115c3.168.231 4.287-.783 5.121-1.545.588-.532 1.138-1.004 2.099-.643 1.962.783 4.307 4.256 4.415 4.406Zm-24.634-15.596a8.054 8.054 0 0 0-2.58-.14 6.65 6.65 0 0 1-.706 0 .428.428 0 0 0-.293.114.428.428 0 0 0-.043.59.41.41 0 0 0 .277.148c.274.018.549.018.824 0a.058.058 0 0 0 .059 0c.008.227.069.449.176.647.107.199.259.37.442.497a4.052 4.052 0 0 0 3.59.381c.249-.06.48-.184.67-.36a1.57 1.57 0 0 0 .419-.643.413.413 0 0 0-.304-.492.391.391 0 0 0-.303.054.41.41 0 0 0-.178.257.898.898 0 0 1-.588.442 3.297 3.297 0 0 1-2.806-.24.763.763 0 0 1-.324-.542c.491.024.98.084 1.462.18.24.045.482.076.726.09.266-.025.529-.08.785-.16a5.758 5.758 0 0 1 1.844-.201c.095.049.205.057.306.024a.405.405 0 0 0 .234-.205.386.386 0 0 0 .036-.318.382.382 0 0 0-.213-.234 4.155 4.155 0 0 0-2.354.13c-.285.07-.569.111-.658.141a4.572 4.572 0 0 1-.549-.09m0-1.235a4.168 4.168 0 0 0-1.962-.22.405.405 0 0 0-.259.161.421.421 0 0 0-.075.3.421.421 0 0 0 .32.339.399.399 0 0 0 .161.002 4.134 4.134 0 0 1 1.619.221.381.381 0 0 0 .318-.029.397.397 0 0 0 .192-.262.432.432 0 0 0-.04-.315.416.416 0 0 0-.245-.197m1.394.693c.441-.14.901-.208 1.363-.2a.409.409 0 0 0 .285-.117.429.429 0 0 0 .02-.586.408.408 0 0 0-.285-.13 5.595 5.595 0 0 0-1.668.25.439.439 0 0 0-.22.225.451.451 0 0 0-.015.317.395.395 0 0 0 .364.27.389.389 0 0 0 .156-.03Zm5.65-.652a8.2 8.2 0 0 0-.245-5.822.394.394 0 0 0-.367-.253.386.386 0 0 0-.153.032.45.45 0 0 0-.216.562 7.533 7.533 0 0 1 .216 5.19c-1.315 3.382-2.364 5.47-3.179 6.112-.981.813-4.326 1.545-7.367.05-.059-.05-.147-.09-.255-.16a3.763 3.763 0 0 0-1.079-.442.387.387 0 0 0-.42.162.402.402 0 0 0-.061.149.461.461 0 0 0 .057.315.443.443 0 0 0 .247.197c.304.064.594.187.854.36l.353.182c3.541 1.746 7.181.732 8.25-.161 1.07-.893 2.011-2.82 3.414-6.473m-2.845-5.902a.721.721 0 0 0 .502-.235c.13-.143.2-.332.195-.528a.809.809 0 0 0-.128-.451c.334.079.662.183.981.31a.358.358 0 0 0 .52-.18.4.4 0 0 0 .032-.316.397.397 0 0 0-.208-.236 3.845 3.845 0 0 0-2.708-.291c-.272.108-.52.27-.73.477a2.263 2.263 0 0 0-.496.727.45.45 0 0 0 .216.563.389.389 0 0 0 .31.002.403.403 0 0 0 .219-.224c.116-.306.34-.557.628-.702a.859.859 0 0 0-.059.321.752.752 0 0 0 .189.521.718.718 0 0 0 .488.242m12.646 18.578c.398-.312.665-.768.745-1.275v-.522a1.694 1.694 0 0 0-.219-1.012 1.637 1.637 0 0 0-.762-.684c-.216-.14-.333-.2-.333-.381.018-.165.065-.324.137-.472.085-.252.128-.517.128-.783a1.913 1.913 0 0 0-.177-.853 3.831 3.831 0 0 0-1.707-1.586 6.03 6.03 0 0 0 .981-3.01 4.666 4.666 0 0 0 0-.503 4.84 4.84 0 0 0-1.658-3.241c-.481-.472-.726-.713-.726-1.235 0-.291 0-.652.088-1.004 0-.582.128-1.234.128-1.896a3.892 3.892 0 0 0-.273-1.907 3.8 3.8 0 0 0-1.15-1.526 4.57 4.57 0 0 0 .462-1.877 2.418 2.418 0 0 0-.216-1.074 2.564 2.564 0 0 0-.726-.865 2.481 2.481 0 0 0-1.021-.46 3.672 3.672 0 0 1-.215-1.354c0-.251 0-.512-.089-.803a2.301 2.301 0 0 0-.452-.909 2.243 2.243 0 0 0-.794-.617 2.151 2.151 0 0 0-1.187-.2c-.215-1.727-.784-2.008-1.638-2.108a2.35 2.35 0 0 1-1.53-.733 1.97 1.97 0 0 0-.732-.574 1.922 1.922 0 0 0-.907-.169 1.675 1.675 0 0 0-.981.492A2.18 2.18 0 0 0 114.907 2c-.283.012-.56.086-.812.218a1.975 1.975 0 0 0-.65.545.459.459 0 0 0 0 .582.427.427 0 0 0 .599-.05 1.047 1.047 0 0 1 .804-.462c.437.07.838.29 1.138.622a.337.337 0 0 0 .334.13.357.357 0 0 0 .324-.2.987.987 0 0 1 .657-.472c.284 0 .588.14.981.502a3.31 3.31 0 0 0 1.962 1.004c.353 0 .52.09.638.24.266.495.401 1.052.392 1.617a.353.353 0 0 0 .196.31.359.359 0 0 0 .393 0 1.037 1.037 0 0 1 .981 0 1.387 1.387 0 0 1 .794.913c0 .252.059.473.079.724.021.59.165 1.168.422 1.696a.36.36 0 0 0 .284.22c.283.037.554.139.792.299.238.16.437.374.582.625a3.075 3.075 0 0 1-.413 2.55.452.452 0 0 0 0 .34.326.326 0 0 0 .216.24c1.58.744 1.354 2.912 1.178 4.678 0 .402-.079.803-.108 1.124.009.372.103.737.273 1.066.17.33.413.614.708.831.409.336.747.754.991 1.229.245.475.392.996.431 1.531a5.353 5.353 0 0 1-1.079 3.332.5.5 0 0 0-.088.382c.05.122.145.219.265.27.712.25 1.32.738 1.726 1.386a1.174 1.174 0 0 1 0 1.004c-.441 1.164 0 1.545.569 1.856.569.311.677.402.54 1.395a1.018 1.018 0 0 1-.432.733c-1.138.873-4.032.693-5.052.542a.425.425 0 0 0-.353.15.372.372 0 0 0-.089.361 1.024 1.024 0 0 1-.196 1.005c-.26.209-.562.355-.885.428a2.15 2.15 0 0 1-.979-.007.422.422 0 0 0-.392.12.418.418 0 0 0-.088.382c.157.692 0 1.164-.344 1.385a1.31 1.31 0 0 1-1.275 0 1.009 1.009 0 0 1-.236-.472 1.105 1.105 0 0 0-.529-.783 1.082 1.082 0 0 0-.893 0c-.618.251-.883.181-.981.11a.759.759 0 0 1-.245-.581.365.365 0 0 0-.305-.341c-.068 0-.775-.201-.882-1.416a4.05 4.05 0 0 1 1.275-2.77l.196-.25.059-.091c.341-.335.561-.778.625-1.257a2.19 2.19 0 0 0-.272-1.383.405.405 0 0 0-.569-.11.358.358 0 0 0-.196.331c-.005.08.02.159.069.22.118.19.186.409.196.633-.053.378-.221.73-.481 1.004l-.088.11-.157.18a5.141 5.141 0 0 0-1.482 3.152v.251c-.006.43.107.851.328 1.216.221.365.54.657.918.842a1.348 1.348 0 0 0 .569.944 1.928 1.928 0 0 0 1.707-.071.778.778 0 0 1 .236 0c.045.094.084.192.118.291.075.3.224.577.431.803a2.102 2.102 0 0 0 2.257.13c.26-.156.473-.384.615-.656a1.71 1.71 0 0 0 .189-.89.607.607 0 0 0 0-.18c.376.034.755-.012 1.112-.135.358-.122.688-.319.968-.578.301-.316.467-.742.461-1.184 1.138.11 3.826.241 5.14-.783m-20.719-20.645a2.803 2.803 0 0 0-1.571.274c-.488.242-.899.62-1.186 1.091a.445.445 0 0 0-.012.322.428.428 0 0 0 .365.284.391.391 0 0 0 .299-.11.41.41 0 0 0 .094-.134c.165-.318.437-.564.765-.693a.816.816 0 0 0 0 .22c-.005.201.067.396.201.543a.738.738 0 0 0 .515.24.75.75 0 0 0 .519-.24.78.78 0 0 0 .207-.542 1.013 1.013 0 0 0-.108-.422c.303.009.597.109.845.287.248.179.439.428.548.717.04.104.116.19.214.24.098.05.211.061.316.031a.447.447 0 0 0 .235-.219.463.463 0 0 0 .03-.323 2.07 2.07 0 0 0-.118-.22 2.09 2.09 0 0 0-.284-2.58c-.981-1.134-2.884-.663-4.238-.331a.41.41 0 0 0-.285.512.427.427 0 0 0 .175.263.401.401 0 0 0 .306.058c1.158-.322 2.757-.703 3.453.08a1.243 1.243 0 0 1 .334 1.255 2.904 2.904 0 0 0-1.599-.583m8.829 24.81a.383.383 0 0 0-.284.492c.323 1.405.284 2.008-.177 2.188-.903.452-3.522.693-6.681.653-1.888.06-3.775-.16-5.602-.653a51.682 51.682 0 0 0 2.414-10.337l.108-.893c.828.311 1.677.563 2.541.752.062.31.092.627.088.944-.03.967-.112 1.932-.245 2.89a44.934 44.934 0 0 0-.354 4.808c0 .381 0 .742.049 1.104a.4.4 0 0 0 .119.295.38.38 0 0 0 .293.106.41.41 0 0 0 .283-.134.427.427 0 0 0 .11-.297c-.061-1.93.044-3.86.314-5.772.216-1.947.392-3.472 0-4.456a.41.41 0 0 0-.304-.27 21.516 21.516 0 0 1-3.13-.934.354.354 0 0 0-.373 0 .445.445 0 0 0-.196.311s-.137 1.415-.137 1.435a54.382 54.382 0 0 1-2.443 10.338.423.423 0 0 0 0 .18.598.598 0 0 0 .226.472c.804.743 4.964.893 6.229.924 1.266.03 5.494 0 7.054-.723 1.226-.602.804-2.188.589-3.152a.419.419 0 0 0-.191-.253.393.393 0 0 0-.31-.038m-1.736-8.671a.407.407 0 0 0-.216-.219.394.394 0 0 0-.304-.002 9.728 9.728 0 0 1-3.522.542.4.4 0 0 0-.285.12.417.417 0 0 0 0 .583.4.4 0 0 0 .285.12 10.445 10.445 0 0 0 3.826-.582.449.449 0 0 0 .216-.562Zm-.658-17.744c-.36.186-.671.458-.907.793a2.59 2.59 0 0 0-.446 1.133 7.836 7.836 0 0 0 .834 3.624c.343.833.696 1.706.48 2.007-.216.301-.48.431-1.157.291a2.728 2.728 0 0 0-1.825.14.873.873 0 0 1-.657 0 .495.495 0 0 1-.197-.31.453.453 0 0 0 .157-.341.427.427 0 0 0-.12-.299.409.409 0 0 0-.292-.123.329.329 0 0 0-.284.13.701.701 0 0 0-.265.542 1.297 1.297 0 0 0 .481 1.054 1.43 1.43 0 0 0 1.461.09c.428-.194.91-.22 1.354-.07.355.136.745.141 1.103.015.358-.127.662-.377.859-.708.125-.207.186-.448.177-.692a6.584 6.584 0 0 0-.589-2.088 8.089 8.089 0 0 1-.794-2.89v-.311c.045-.28.151-.547.311-.78.16-.233.368-.426.611-.565 1.157-.552 2.943.29 2.943.29a.394.394 0 0 0 .461-.06.405.405 0 0 0 .108-.452 11.59 11.59 0 0 1-.706-3.27.425.425 0 0 0-.128-.286.408.408 0 0 0-.285-.116.426.426 0 0 0-.276.139.445.445 0 0 0-.116.292c.055.92.217 1.83.481 2.71a3.766 3.766 0 0 0-2.806 0m-9.251-2.439a2.89 2.89 0 0 0 1.468-.302 2.97 2.97 0 0 0 1.132-1.003 3.182 3.182 0 0 0 1.883 1.004 2.699 2.699 0 0 0 1.845-.923 3.221 3.221 0 0 0 1.962.853c.35-.016.692-.114.999-.288.306-.175.569-.42.767-.716.24.214.503.4.784.552a.39.39 0 0 0 .307.046.393.393 0 0 0 .243-.196.424.424 0 0 0 .04-.313.413.413 0 0 0-.187-.25 1.855 1.855 0 0 1-.834-.742.417.417 0 0 0-.726 0c-.412.743-.873 1.074-1.393 1.074a2.918 2.918 0 0 1-1.737-.873.435.435 0 0 0-.324-.13.419.419 0 0 0-.304.18 2.209 2.209 0 0 1-1.452.893 2.818 2.818 0 0 1-1.618-1.054.399.399 0 0 0-.512-.111.422.422 0 0 0-.146.131c-.255.402-.981 1.345-1.814 1.395a49.104 49.104 0 0 0-1.963-6.724h.216c.303-.02.606.038.881.168.276.13.516.327.699.575a.42.42 0 0 0 .392.18.534.534 0 0 0 .334-.291c.127-.451 1.157-1.003 2.227-.943a2.64 2.64 0 0 1 1.246.47c.371.261.671.614.873 1.025a.404.404 0 0 0 .549.18.435.435 0 0 0 .157-.581 3.545 3.545 0 0 0-1.16-1.334 3.443 3.443 0 0 0-1.646-.593 3.736 3.736 0 0 0-2.688 1.003 2.604 2.604 0 0 0-1.962-.642c-.252.029-.501.08-.745.15a.422.422 0 0 0-.128.05.398.398 0 0 0-.176.332.458.458 0 0 0 0 .18h.049a47.448 47.448 0 0 1 2.158 7.247.456.456 0 0 0 .333.321m8.712 30.913a.393.393 0 0 0 .371.236.388.388 0 0 0 .149-.036.422.422 0 0 0 .216-.542 7.672 7.672 0 0 1-.246-2.117v-.201a.421.421 0 0 0-.124-.288.412.412 0 0 0-.288-.114.41.41 0 0 0-.285.127.427.427 0 0 0-.117.295v.18c-.048.88.058 1.76.314 2.6M58.628 13.552a.74.74 0 0 1-.45-.159.768.768 0 0 1-.267-.404l-.7-1.943h-5l-.7 1.943a.719.719 0 0 1-.252.41.69.69 0 0 1-.449.153.637.637 0 0 1-.497-.163.664.664 0 0 1-.22-.485c.025-.205.076-.405.15-.597v-.119l3.335-9.239c.233-.562.566-.869 1.05-.869.238.007.467.097.649.255s.305.375.35.614l3.334 9.358c.084.189.134.39.15.597a.66.66 0 0 1-.208.484.63.63 0 0 1-.492.164m-5.917-3.836h4.05l-2-5.812-2.05 5.812Zm15.769 3.836c.483 0 .7-.256.7-.87v-9.8a.785.785 0 0 0-.174-.615.752.752 0 0 0-.568-.267.736.736 0 0 0-.569.267.773.773 0 0 0-.173.614v7.943L62.045 2.83c-.4-.563-.583-.75-1-.75-.417 0-.7.307-.7.87v9.818a.785.785 0 0 0 .173.614.751.751 0 0 0 .569.267.736.736 0 0 0 .568-.267.772.772 0 0 0 .174-.614v-7.91l5.434 7.944c.366.562.583.75 1 .75Zm5.284 0a.687.687 0 0 0 .542-.22.718.718 0 0 0 .191-.564V3.63h1.967a.701.701 0 0 0 .576-.168.732.732 0 0 0 .25-.556.748.748 0 0 0-.25-.557.712.712 0 0 0-.576-.168h-5.2a.701.701 0 0 0-.576.168.731.731 0 0 0-.25.557.746.746 0 0 0 .25.556.711.711 0 0 0 .575.168h2v9.17a.732.732 0 0 0 .197.572.699.699 0 0 0 .554.213m8.334 0c-3.184 0-4.817-2.88-4.817-5.728 0-2.846 1.667-5.744 4.817-5.744 3.15 0 4.884 2.88 4.884 5.744a5.363 5.363 0 0 1-.227 2.097c-.214.676-.56 1.301-1.016 1.836a5.15 5.15 0 0 1-1.64 1.28 5.043 5.043 0 0 1-2.001.515Zm0-10.142c-2.417 0-3.334 2.284-3.334 4.414 0 2.131.85 4.398 3.334 4.398s3.334-2.284 3.334-4.398c0-2.113-.867-4.414-3.334-4.414Zm14.502 10.142c.45 0 .666-.256.666-.87v-9.8a.73.73 0 0 0-.183-.576.7.7 0 0 0-.55-.226.702.702 0 0 0-.554.225.737.737 0 0 0-.196.576v7.944l-5.417-7.995c-.384-.562-.567-.75-1.017-.75-.45 0-.667.307-.667.87v9.818a.732.732 0 0 0 .196.57.698.698 0 0 0 .554.214.688.688 0 0 0 .543-.22.72.72 0 0 0 .19-.564v-7.91l5.435 7.944c.366.562.566.75 1 .75Zm3.617 0a.667.667 0 0 0 .549-.214.707.707 0 0 0 .184-.57V2.915a.767.767 0 0 0-.169-.601.736.736 0 0 0-.556-.262.721.721 0 0 0-.556.262.756.756 0 0 0-.169.601v9.887a.714.714 0 0 0 .179.563.684.684 0 0 0 .538.22ZM8.322 43.859a.713.713 0 0 0 .435-.247.743.743 0 0 0 0-.955.713.713 0 0 0-.435-.247H5.505v-9.153a.782.782 0 0 0-.22-.543.749.749 0 0 0-.53-.224.735.735 0 0 0-.53.224.768.768 0 0 0-.22.543v9.767a.766.766 0 0 0 .2.606.73.73 0 0 0 .583.23h3.534Zm6.468 0a.703.703 0 0 0 .575-.168.73.73 0 0 0 .25-.556.746.746 0 0 0-.25-.557.713.713 0 0 0-.575-.168h-3.15v-3.494h2.9a.712.712 0 0 0 .435-.247.743.743 0 0 0 0-.955.712.712 0 0 0-.435-.247h-2.9v-3.495h3.15a.701.701 0 0 0 .575-.168.731.731 0 0 0 .25-.556.746.746 0 0 0-.25-.556.713.713 0 0 0-.575-.168h-3.868a.736.736 0 0 0-.577.235.769.769 0 0 0-.206.6v9.665a.766.766 0 0 0 .2.606.732.732 0 0 0 .583.23h3.868Zm6.984 0a.703.703 0 0 0 .575-.168.73.73 0 0 0 .25-.556.746.746 0 0 0-.25-.557.714.714 0 0 0-.575-.168H18.59v-3.494h2.9a.713.713 0 0 0 .435-.247.743.743 0 0 0 0-.955.713.713 0 0 0-.435-.247h-2.9v-3.495h3.184a.702.702 0 0 0 .575-.168.731.731 0 0 0 .25-.556.746.746 0 0 0-.25-.556.714.714 0 0 0-.575-.168h-3.9a.736.736 0 0 0-.578.235.769.769 0 0 0-.206.6v9.665a.766.766 0 0 0 .199.606.732.732 0 0 0 .584.23h3.9Zm6.484 0a3.837 3.837 0 0 0 1.756-.215 3.91 3.91 0 0 0 1.484-.984c.415-.439.726-.97.91-1.55a4.093 4.093 0 0 0 .15-1.802v-6.12a.78.78 0 0 0-.173-.614.75.75 0 0 0-.568-.267.736.736 0 0 0-.569.267.772.772 0 0 0-.173.614v6.648a2.924 2.924 0 0 1-.9 1.904 2.8 2.8 0 0 1-1.925.772 2.8 2.8 0 0 1-1.926-.772 2.924 2.924 0 0 1-.9-1.904v-6.648a.714.714 0 0 0-.166-.568.684.684 0 0 0-.534-.233.685.685 0 0 0-.56.219.718.718 0 0 0-.19.582v6.24a4.092 4.092 0 0 0 .15 1.796c.183.58.492 1.11.905 1.548a3.91 3.91 0 0 0 1.478.985c.56.209 1.159.285 1.75.221m15.003 0a.963.963 0 0 0 .715-.245 1.003 1.003 0 0 0 .335-.692l1.667-9.137a6.381 6.381 0 0 0 0-.716.661.661 0 0 0-.196-.506.63.63 0 0 0-.504-.175.702.702 0 0 0-.533.171.73.73 0 0 0-.25.51l-1.368 8.779-2.5-8.847a.703.703 0 0 0-.246-.458.673.673 0 0 0-.487-.155.69.69 0 0 0-.495.154.72.72 0 0 0-.256.46l-2.45 8.812-1.417-8.745a.729.729 0 0 0-.245-.516.695.695 0 0 0-.538-.165.603.603 0 0 0-.488.182.634.634 0 0 0-.179.5c-.01.241.019.483.084.715l1.666 9.137c.018.264.136.51.329.685a.97.97 0 0 0 .705.252c.567 0 .9-.136 1.117-.937l2.2-8.063 2.183 8.063c.234.801.6.937 1.117.937m9.035 0a.712.712 0 0 0 .435-.247.743.743 0 0 0 0-.954.712.712 0 0 0-.435-.248h-3.2v-3.613h2.9a.702.702 0 0 0 .575-.168.731.731 0 0 0 .25-.557.746.746 0 0 0-.25-.556.71.71 0 0 0-.575-.168h-2.9v-3.495h3.2a.712.712 0 0 0 .435-.247.743.743 0 0 0 0-.954.712.712 0 0 0-.435-.247h-3.867a.75.75 0 0 0-.594.227.785.785 0 0 0-.223.608v9.665a.783.783 0 0 0 .216.614.747.747 0 0 0 .6.221l3.868.12Zm10.218 0c.483 0 .716-.255.716-.869v-9.801a.749.749 0 0 0-.195-.576.717.717 0 0 0-.555-.225.686.686 0 0 0-.55.225.719.719 0 0 0-.183.576v7.824l-5.334-7.926c-.417-.563-.6-.75-1-.75s-.717.306-.717.869v9.818a.782.782 0 0 0 .22.542.75.75 0 0 0 .53.225.737.737 0 0 0 .53-.224.768.768 0 0 0 .22-.543v-7.91l5.417 7.944c.384.563.6.75 1 .75m10.752 0c.45 0 .75-.29.75-.87V33.36c0-.563-.3-.904-.75-.904s-.75.341-.75.904v4.16h-5.6v-4.16c0-.563-.3-.904-.751-.904-.45 0-.75.341-.75.904v9.699c0 .58.267.87.75.87s.75-.29.75-.87v-4.21h5.6v4.21c0 .58.268.87.75.87Zm7.217 0c-3.2 0-4.867-2.88-4.867-5.727 0-2.847 1.667-5.745 4.867-5.745s4.834 2.881 4.834 5.745c0 2.864-1.666 5.727-4.834 5.727Zm0-10.142c-2.416 0-3.333 2.284-3.333 4.415 0 2.13.85 4.398 3.333 4.398 2.484 0 3.334-2.267 3.334-4.398 0-2.13-.85-4.415-3.334-4.415Zm11.218 10.074a.703.703 0 0 0 .576-.168.73.73 0 0 0 .25-.556.746.746 0 0 0-.25-.557.713.713 0 0 0-.576-.168h-3.183v-3.494h2.9a.701.701 0 0 0 .576-.168.733.733 0 0 0 .25-.557.748.748 0 0 0-.25-.556.71.71 0 0 0-.576-.168h-2.9v-3.495h3.183a.701.701 0 0 0 .576-.168.732.732 0 0 0 .25-.556.746.746 0 0 0-.25-.556.713.713 0 0 0-.576-.168h-3.867a.719.719 0 0 0-.573.235.754.754 0 0 0-.193.6v9.665a.75.75 0 0 0 .186.606.714.714 0 0 0 .58.23h3.867Zm9.485 0a.69.69 0 0 0 .683-.406.73.73 0 0 0 .067-.276.783.783 0 0 0-.3-.597l-4.834-4.79 4.417-4.073a.842.842 0 0 0 .3-.682.66.66 0 0 0-.197-.47.626.626 0 0 0-.47-.178c-.3 0-.516.222-.783.46l-4.567 4.245v-3.904a.783.783 0 0 0-.173-.614.752.752 0 0 0-.569-.267.737.737 0 0 0-.568.267.774.774 0 0 0-.174.614v9.887a.783.783 0 0 0 .174.614.752.752 0 0 0 .568.267.736.736 0 0 0 .569-.267.772.772 0 0 0 .173-.614v-4.534l5.001 5.114a.95.95 0 0 0 .7.29m-23.12-15.018c.517 0 .7-.375.85-.784l3.334-9.512c.062-.169.096-.347.1-.528a.66.66 0 0 0-.197-.47.63.63 0 0 0-.47-.178c-.55 0-.7.41-.883.955l-2.717 8.011-2.75-8.096c-.15-.46-.3-.87-.867-.87a.62.62 0 0 0-.47.177.647.647 0 0 0-.197.47c.011.182.05.36.117.53l3.333 9.51c.134.41.334.785.85.785m12.419 0a.74.74 0 0 1-.45-.159.768.768 0 0 1-.267-.404l-.7-1.943h-5l-.7 1.944a.718.718 0 0 1-.252.41.69.69 0 0 1-.449.152.635.635 0 0 1-.491-.157.663.663 0 0 1-.226-.474c.022-.21.073-.417.15-.613v-.086l3.334-9.273c.233-.562.567-.869 1.05-.869.239.007.468.097.65.255.181.158.305.375.35.614l3.417 9.359c.085.194.136.401.15.613a.66.66 0 0 1-.214.473.63.63 0 0 1-.486.158m-5.75-3.852h4.05l-2-5.813-2.05 5.813Zm15.768 3.835c.484 0 .7-.256.7-.87v-9.8a.783.783 0 0 0-.173-.615.737.737 0 0 0-1.137 0 .774.774 0 0 0-.173.614v7.944l-5.434-7.995c-.4-.562-.584-.75-1-.75-.417 0-.7.307-.7.87v9.818a.783.783 0 0 0 .173.614.752.752 0 0 0 .568.267.736.736 0 0 0 .569-.267.774.774 0 0 0 .173-.614v-7.91l5.434 7.978c.367.529.583.716 1 .716Z"/></svg>